<svg width="436" height="360" viewBox="0 0 436 360" fill="none" xmlns="http://www.w3.org/2000/svg">
<path opacity="0.1" d="M52.8102 48.5833C56.8474 24.4944 77.6976 6.8479 102.122 6.8479H385.999C413.614 6.8479 435.999 29.2337 435.999 56.8479V309.407C435.999 337.021 413.614 359.407 385.999 359.407H59.7941C28.8788 359.407 5.37175 331.633 10.4818 301.142L52.8102 48.5833Z" fill="#2D9CDB"/>
<ellipse cx="377.296" cy="308.228" rx="30.4548" ry="17.996" transform="rotate(20.7184 377.296 308.228)" stroke="white" stroke-width="1.5"/>
<path d="M107.51 250.794C47.896 262.815 33.4939 199.666 74.2554 126.688C166.823 -11.7434 313.019 29.3643 335.314 56.7376C357.61 84.111 339.693 116.946 253.78 131.32C167.867 145.695 182.028 235.767 107.51 250.794Z" stroke="white" stroke-width="1.5"/>
</svg>
