<svg width="435" height="383" viewBox="0 0 435 383" fill="none" xmlns="http://www.w3.org/2000/svg">
<path opacity="0.1" d="M52.5015 43.3617C56.2694 18.9862 77.2496 1 101.915 1H385C412.614 1 435 23.3858 435 51V333C435 360.614 412.614 383 385 383H58.3229C27.6641 383 4.22614 355.661 8.90976 325.362L52.5015 43.3617Z" fill="#68C9BA"/>
<path d="M403.141 122.649C428.475 151.383 398.562 179.129 345.913 179.878C241.242 172.98 217.622 80.2807 225.533 59.4969C233.443 38.713 256.998 38.1457 291.898 80.4853C326.799 122.825 371.474 86.731 403.141 122.649Z" stroke="white" stroke-width="1.5"/>
<ellipse cx="300.348" cy="88.2998" rx="16.592" ry="9.80438" transform="rotate(20.7184 300.348 88.2998)" stroke="white" stroke-width="1.5"/>
</svg>
